<svg width="16" height="40" viewBox="0 0 16 44" fill="none" xmlns="http://www.w3.org/2000/svg">
<path d="M7.04289 42.716C7.43342 43.1066 8.06658 43.1066 8.45711 42.716L14.8211 36.3521C15.2116 35.9615 15.2116 35.3284 14.8211 34.9379C14.4305 34.5473 13.7974 34.5473 13.4069 34.9379L7.75 40.5947L2.09315 34.9379C1.70262 34.5473 1.06946 34.5473 0.678932 34.9379C0.288408 35.3284 0.288408 35.9615 0.678932 36.3521L7.04289 42.716ZM6.75 0L6.75 42.0089H8.75L8.75 0L6.75 0Z" fill="#2371b9"/>
<circle cx="8" cy="17.0015" r="7" fill="white"/>
<path d="M8.8 13.0015H7.2V16.2015H4V17.8015H7.2V21.0015H8.8V17.8015H12V16.2015H8.8V13.0015ZM8 9.0015C3.584 9.0015 0 12.5855 0 17.0015C0 21.4175 3.584 25.0015 8 25.0015C12.416 25.0015 16 21.4175 16 17.0015C16 12.5855 12.416 9.0015 8 9.0015ZM8 23.4015C4.472 23.4015 1.6 20.5295 1.6 17.0015C1.6 13.4735 4.472 10.6015 8 10.6015C11.528 10.6015 14.4 13.4735 14.4 17.0015C14.4 20.5295 11.528 23.4015 8 23.4015Z" fill="#2371b9"/>
</svg>
