<svg width="16" height="38" viewBox="0 0 16 38" fill="none" xmlns="http://www.w3.org/2000/svg">
<g clip-path="url(#clip0_9_4)">
<path d="M6.86363 0V38.1899H8.68181V0H6.86363Z" fill="#2371B9"/>
<path d="M8 21.8195C11.5145 21.8195 14.3636 18.9704 14.3636 15.4559C14.3636 11.9414 11.5145 9.09227 8 9.09227C4.48546 9.09227 1.63637 11.9414 1.63637 15.4559C1.63637 18.9704 4.48546 21.8195 8 21.8195Z" fill="white"/>
<path d="M8.72728 11.8195H7.27273V14.7286H4.36364V16.1832H7.27273V19.0923H8.72728V16.1832H11.6364V14.7286H8.72728V11.8195ZM8.00001 8.18318C3.98546 8.18318 0.72728 11.4414 0.72728 15.4559C0.72728 19.4705 3.98546 22.7286 8.00001 22.7286C12.0146 22.7286 15.2727 19.4705 15.2727 15.4559C15.2727 11.4414 12.0146 8.18318 8.00001 8.18318ZM8.00001 21.2741C4.79273 21.2741 2.18183 18.6632 2.18183 15.4559C2.18183 12.2486 4.79273 9.63773 8.00001 9.63773C11.2073 9.63773 13.8182 12.2486 13.8182 15.4559C13.8182 18.6632 11.2073 21.2741 8.00001 21.2741Z" fill="#2371B9"/>
</g>
<defs>
<clipPath id="clip0_9_4">
<rect width="16" height="38" fill="white"/>
</clipPath>
</defs>
</svg>
